<svg xmlns="http://www.w3.org/2000/svg" xmlns:xlink="http://www.w3.org/1999/xlink" width="500" zoomAndPan="magnify" viewBox="0 0 375 374.999991" height="500" preserveAspectRatio="xMidYMid meet" version="1.2"><defs><clipPath id="b7ac2a76d2"><path d="M 111 7.332031 L 264 7.332031 L 264 197 L 111 197 Z M 111 7.332031 "/></clipPath><clipPath id="ed1af8c1f7"><path d="M 160.714844 59.007812 L 213.964844 59.007812 L 213.964844 121 L 160.714844 121 Z M 160.714844 59.007812 "/></clipPath><clipPath id="73e1c09075"><path d="M 175 127 L 195 127 L 195 146.007812 L 175 146.007812 Z M 175 127 "/></clipPath></defs><g id="d1c692f9a1"><g clip-rule="nonzero" clip-path="url(#b7ac2a76d2)"><path style=" stroke:none;fill-rule:nonzero;fill:#ffffff;fill-opacity:1;" d="M 111.941406 88.554688 C 111.941406 133.347656 145.671875 196.222656 187.5 196.222656 C 229.324219 196.222656 263.054688 133.347656 263.054688 88.554688 C 263.054688 43.761719 229.324219 7.332031 187.5 7.332031 C 145.671875 7.332031 111.941406 43.761719 111.941406 88.554688 Z M 111.941406 88.554688 "/></g><path style=" stroke:none;fill-rule:nonzero;fill:#ffffff;fill-opacity:1;" d="M 338.339844 243.984375 C 324.578125 231.03125 242.816406 207.015625 242.816406 207.015625 L 187.5 247.492188 L 132.179688 207.015625 C 132.179688 207.015625 50.417969 231.03125 36.65625 243.984375 C 22.085938 257.746094 16.6875 303.347656 14.800781 331.140625 C 13.988281 343.015625 23.433594 352.730469 35.578125 352.730469 L 339.417969 352.730469 C 351.5625 352.730469 361.007812 343.015625 360.199219 331.140625 C 358.308594 303.347656 352.910156 257.746094 338.339844 243.984375 Z M 165.101562 341.9375 L 182.101562 256.664062 L 192.894531 256.664062 L 209.894531 341.667969 L 165.101562 341.667969 Z M 165.101562 341.9375 "/><g clip-rule="nonzero" clip-path="url(#ed1af8c1f7)"><path style=" stroke:none;fill-rule:nonzero;fill:#000000;fill-opacity:1;" d="M 210.445312 69.097656 C 208.152344 65.828125 204.996094 63.324219 200.96875 61.601562 C 196.960938 59.878906 192.328125 59.007812 187.085938 59.007812 C 182.316406 59.007812 177.960938 59.859375 174.019531 61.566406 C 170.082031 63.253906 166.90625 65.84375 164.511719 69.273438 C 162.601562 72.003906 161.421875 75.3125 160.9375 79.191406 C 160.726562 80.878906 162.0625 82.375 163.765625 82.375 L 174.316406 82.375 C 175.667969 82.375 176.8125 81.417969 177.109375 80.097656 C 177.371094 78.914062 177.804688 77.851562 178.410156 76.945312 C 179.382812 75.484375 180.632812 74.371094 182.160156 73.625 C 183.6875 72.875 185.300781 72.492188 187.015625 72.492188 C 188.789062 72.492188 190.382812 72.859375 191.859375 73.605469 C 193.316406 74.335938 194.480469 75.398438 195.347656 76.773438 C 196.214844 78.148438 196.648438 79.730469 196.648438 81.558594 C 196.648438 83.28125 196.265625 84.828125 195.503906 86.203125 C 194.738281 87.578125 193.714844 88.847656 192.433594 89.980469 C 191.128906 91.128906 189.691406 92.207031 188.058594 93.269531 C 185.871094 94.640625 184 96.171875 182.453125 97.863281 C 180.890625 99.550781 179.730469 101.757812 178.914062 104.507812 C 178.117188 107.257812 177.699219 110.929688 177.679688 115.539062 L 177.679688 117.835938 C 177.679688 119.402344 178.949219 120.691406 180.527344 120.691406 L 189.8125 120.691406 C 191.375 120.691406 192.65625 119.421875 192.65625 117.835938 L 192.65625 115.539062 C 192.691406 112.949219 193.023438 110.773438 193.664062 109.015625 C 194.304688 107.257812 195.296875 105.691406 196.613281 104.351562 C 197.949219 103.011719 199.652344 101.722656 201.734375 100.472656 C 204.214844 98.992188 206.347656 97.339844 208.171875 95.496094 C 209.976562 93.667969 211.398438 91.546875 212.421875 89.160156 C 213.429688 86.777344 213.949219 84.027344 213.949219 80.949219 C 213.898438 76.320312 212.734375 72.371094 210.445312 69.097656 Z M 210.445312 69.097656 "/></g><g clip-rule="nonzero" clip-path="url(#73e1c09075)"><path style=" stroke:none;fill-rule:nonzero;fill:#000000;fill-opacity:1;" d="M 185.457031 127.09375 C 182.816406 127.09375 180.578125 128.015625 178.722656 129.859375 C 176.867188 131.703125 175.945312 133.933594 175.980469 136.507812 C 175.945312 139.117188 176.867188 141.363281 178.722656 143.222656 C 180.578125 145.085938 182.816406 146.007812 185.457031 146.007812 C 187.140625 146.007812 188.699219 145.574219 190.105469 144.71875 C 191.53125 143.851562 192.675781 142.71875 193.558594 141.273438 C 194.445312 139.832031 194.894531 138.246094 194.914062 136.507812 C 194.878906 133.914062 193.925781 131.703125 192.03125 129.859375 C 190.160156 128.015625 187.953125 127.09375 185.457031 127.09375 Z M 185.457031 127.09375 "/></g></g></svg>