<svg xmlns="http://www.w3.org/2000/svg" xmlns:xlink="http://www.w3.org/1999/xlink" width="500" zoomAndPan="magnify" viewBox="0 0 375 374.999991" height="500" preserveAspectRatio="xMidYMid meet" version="1.2"><defs><clipPath id="cc64096bc7"><path d="M 20.40625 20.40625 L 354.90625 20.40625 L 354.90625 354.90625 L 20.40625 354.90625 Z M 20.40625 20.40625 "/></clipPath><clipPath id="429acbd46c"><path d="M 20.40625 20.40625 L 103 20.40625 L 103 123 L 20.40625 123 Z M 20.40625 20.40625 "/></clipPath></defs><g id="47fca2bb9f"><path style=" stroke:none;fill-rule:evenodd;fill:#ffffff;fill-opacity:1;" d="M 229.21875 273.097656 L 113.84375 273.097656 C 98.367188 273.097656 85.832031 260.5625 85.832031 245.085938 L 85.832031 224.324219 C 85.832031 221.1875 86.808594 218.054688 88.574219 215.703125 C 90.140625 213.15625 92.097656 211.199219 94.644531 209.828125 C 94.839844 209.828125 94.839844 209.828125 95.039062 209.632812 L 134.214844 190.628906 L 94.839844 171.433594 C 92.492188 170.453125 90.140625 168.300781 88.378906 165.558594 C 86.613281 163.011719 85.832031 160.070312 85.832031 156.9375 L 85.832031 136.171875 C 85.832031 120.699219 98.367188 108.160156 113.84375 108.160156 L 229.21875 108.160156 C 242.933594 108.160156 254.292969 117.761719 256.839844 130.6875 L 291.902344 112.277344 C 293.863281 111.296875 296.019531 111.296875 297.78125 112.472656 C 299.542969 113.449219 300.523438 115.410156 300.523438 117.566406 L 300.523438 141.070312 C 300.523438 143.226562 299.347656 145.183594 297.390625 146.164062 L 208.652344 190.628906 L 298.761719 235.683594 C 300.71875 236.664062 301.894531 238.621094 301.894531 240.777344 L 301.894531 264.285156 C 301.894531 266.4375 300.914062 268.398438 299.152344 269.378906 C 297.390625 270.550781 295.234375 270.550781 293.472656 269.574219 L 256.839844 250.570312 C 254.292969 263.5 242.933594 273.097656 229.21875 273.097656 Z M 100.328125 220.210938 C 99.542969 220.601562 98.757812 221.1875 98.367188 221.972656 C 98.367188 222.167969 98.171875 222.363281 98.171875 222.363281 C 97.78125 222.953125 97.582031 223.734375 97.582031 224.324219 L 97.582031 245.085938 C 97.582031 254.097656 104.832031 261.34375 113.84375 261.34375 L 229.21875 261.34375 C 238.230469 261.34375 245.480469 254.097656 245.480469 245.085938 L 245.480469 241.167969 C 245.480469 239.210938 246.652344 237.25 248.417969 236.273438 C 250.179688 235.097656 252.335938 235.097656 254.097656 236.078125 L 290.140625 254.683594 L 290.140625 244.5 L 192.785156 195.917969 C 190.828125 194.941406 189.652344 192.980469 189.453125 190.828125 C 189.453125 188.476562 190.828125 186.515625 192.785156 185.539062 L 288.769531 137.347656 L 288.769531 127.164062 L 254.097656 145.378906 C 252.335938 146.359375 250.179688 146.359375 248.417969 145.183594 C 246.652344 144.207031 245.480469 142.246094 245.480469 140.289062 L 245.480469 136.171875 C 245.480469 127.164062 238.230469 119.914062 229.21875 119.914062 L 113.84375 119.914062 C 104.832031 119.914062 97.582031 127.164062 97.582031 136.171875 L 97.582031 156.9375 C 97.582031 157.722656 97.78125 158.503906 98.367188 159.289062 C 98.757812 159.875 99.152344 160.660156 99.933594 160.855469 L 150.277344 185.539062 C 152.238281 186.515625 153.609375 188.476562 153.609375 190.828125 C 153.410156 192.980469 152.238281 194.941406 150.277344 196.117188 Z M 229.21875 252.140625 L 113.84375 252.140625 C 109.730469 252.140625 106.789062 249.199219 106.789062 245.085938 L 106.789062 230.984375 C 106.789062 228.828125 107.964844 226.871094 109.925781 225.890625 L 168.886719 197.09375 C 170.648438 196.117188 172.414062 196.117188 174.175781 197.09375 L 233.136719 225.890625 C 235.097656 226.871094 236.273438 228.828125 236.273438 230.984375 L 236.273438 245.085938 C 236.273438 249.199219 233.332031 252.140625 229.21875 252.140625 Z M 118.542969 240.386719 L 224.519531 240.386719 L 224.519531 234.703125 L 171.628906 208.847656 L 118.542969 234.703125 Z M 171.628906 184.753906 C 170.648438 184.753906 169.867188 184.558594 168.886719 184.167969 L 109.925781 155.761719 C 107.964844 154.78125 106.789062 152.628906 106.789062 150.472656 L 106.789062 136.171875 C 106.789062 132.257812 109.925781 129.121094 113.84375 129.121094 L 229.21875 129.121094 C 233.136719 129.121094 236.273438 132.257812 236.273438 136.171875 L 236.273438 150.472656 C 236.273438 152.628906 235.097656 154.78125 233.136719 155.761719 L 174.175781 184.363281 C 173.195312 184.753906 172.414062 184.753906 171.628906 184.753906 Z M 118.542969 146.75 L 171.628906 172.414062 L 224.519531 146.75 L 224.519531 140.875 L 118.542969 140.875 Z M 118.542969 146.75 "/><g clip-rule="nonzero" clip-path="url(#cc64096bc7)"><path style=" stroke:none;fill-rule:evenodd;fill:#ffffff;fill-opacity:1;" d="M 58.996094 354.589844 C 37.640625 354.589844 20.40625 337.351562 20.40625 316 L 20.40625 58.996094 C 20.40625 37.640625 37.640625 20.40625 58.996094 20.40625 L 316 20.40625 C 337.351562 20.40625 354.589844 37.640625 354.589844 58.996094 L 354.589844 316 C 354.589844 337.351562 337.351562 354.589844 316 354.589844 Z M 58.996094 32.15625 C 44.105469 32.15625 32.15625 44.105469 32.15625 58.996094 L 32.15625 316 C 32.15625 330.886719 44.105469 342.835938 58.996094 342.835938 L 316 342.835938 C 330.886719 342.835938 342.835938 330.886719 342.835938 316 L 342.835938 58.996094 C 342.835938 44.105469 330.886719 32.15625 316 32.15625 Z M 58.996094 32.15625 "/></g><g clip-rule="nonzero" clip-path="url(#429acbd46c)"><path style=" stroke:none;fill-rule:evenodd;fill:#ffffff;fill-opacity:1;" d="M 29.808594 122.460938 L 26.28125 122.460938 C 22.949219 122.460938 20.40625 119.71875 20.40625 116.585938 L 20.40625 58.796875 C 20.40625 37.640625 37.640625 20.40625 58.796875 20.40625 L 91.707031 20.40625 C 94.058594 20.40625 96.210938 21.777344 96.996094 24.125 C 100.328125 32.355469 102.089844 41.167969 102.089844 50.375 C 102.089844 90.140625 69.570312 122.460938 29.808594 122.460938 Z M 58.796875 32.15625 C 44.105469 32.15625 32.15625 44.105469 32.15625 58.796875 L 32.15625 110.511719 C 64.28125 109.335938 90.335938 82.695312 90.335938 50.375 C 90.335938 43.910156 89.355469 37.839844 87.398438 32.15625 Z M 58.796875 32.15625 "/></g></g></svg>